# xmcd
#
# Track frame offsets: 
#        180
#        17536
#        30892
#        47612
#        61486
#        81342
#        98995
#        114829
#        133200
#        143352
#        161246
#        176106
#
# Disc length: 2582 seconds
#
# Revision: 2
# Processed by: cddbd v1.4PL0 Copyright (c) Steve Scherf et al.
# Submitted via: ExactAudioCopy v0.90b4
#
DISCID=960a140c
DTITLE=Old 97's - Wreck Your Life
DYEAR=1995
DGENRE=Country
TTITLE0=Victoria
TTITLE1=The Other Shoe
TTITLE2=Doreen
TTITLE3=You Belong To My Heart
TTITLE4=Big Brown Eyes
TTITLE5=Dressing Room Walls
TTITLE6=W-I-F-E
TTITLE7=Bel Air
TTITLE8=My Sweet Blue-Eyed Darlin'
TTITLE9=Old Familiar Steam
TTITLE10=Over The Cliff
TTITLE11=Goin', Goin', Gone
EXTD=
EXTT0=
EXTT1=
EXTT2=
EXTT3=
EXTT4=
EXTT5=
EXTT6=
EXTT7=
EXTT8=
EXTT9=
EXTT10=
EXTT11=
PLAYORDER=
